<svg width="64" height="66" viewBox="0 0 64 66" fill="none" xmlns="http://www.w3.org/2000/svg">
<path d="M43.2001 32.9999C43.2001 26.7999 38.2001 21.7999 32 21.7999C25.8 21.7999 20.8 26.7999 20.8 32.9999C20.8 39.1999 25.8 44.1999 32 44.1999C38.2001 44.1999 43.2001 39.1999 43.2001 32.9999ZM32 42.2999C26.9 42.2999 22.7001 38.0999 22.7001 32.9999C22.7001 27.8999 26.9 23.7999 32 23.7999C37.1 23.7999 41.2001 27.8999 41.2001 32.9999C41.3001 38.0999 37.1 42.2999 32 42.2999Z" fill="#5D76F8"/>
<path d="M32 29.3C32.8 29.3 33.4 29.9 33.4 30.7C33.4 31.2 33.8 31.7 34.4 31.7C34.9 31.7 35.4 31.3 35.4 30.7C35.4 29.2 34.4 28 33 27.5V26.9C33 26.4 32.6 25.9 32 25.9C31.5 25.9 31 26.3 31 26.9V27.5C29.6 27.9 28.6 29.2 28.6 30.7C28.6 32.5 30.1 34 31.9 34C32.7 34 33.3 34.6 33.3 35.4C33.3 36.2 32.7 36.8 31.9 36.8C31.1 36.8 30.5 36.2 30.5 35.4C30.5 34.9 30.1 34.4 29.5 34.4C29 34.4 28.5 34.8 28.5 35.4C28.5 36.9 29.5 38.1 30.9 38.6V39.2C30.9 39.7 31.3 40.2 31.9 40.2C32.4 40.2 32.9 39.8 32.9 39.2V38.6C34.3 38.2 35.3 36.9 35.3 35.4C35.3 33.6 33.8 32.1 32 32.1C31.2 32.1 30.6 31.5 30.6 30.7C30.6 29.9 31.2 29.3 32 29.3Z" fill="#5D76F8"/>
<path d="M63.6 11.9L50.4 1.19998C50.1 0.999984 49.7 0.899984 49.4 1.09998C49 1.29998 48.8 1.59998 48.8 1.99998V6.19998H33C32.5 6.19998 32 6.59998 32 7.19998C32 7.69998 32.4 8.19998 33 8.19998H49.7C50.2 8.19998 50.7 7.79998 50.7 7.19998V3.99998L61.5 12.7L50.7 21.4V18.2C50.7 17.7 50.3 17.2 49.7 17.2H33C32.5 17.2 32 17.6 32 18.2C32 18.7 32.4 19.2 33 19.2H48.7V23.4C48.7 23.8 48.9 24.1 49.3 24.3C49.6 24.5 50 24.4 50.3 24.2L63.6 13.5C63.8 13.3 64 13 64 12.7C64 12.4 63.9 12.1 63.6 11.9Z" fill="#5D76F8"/>
<path d="M13.5 9.10001C14.4 8.20001 13 6.80001 12.1 7.70001C11.9 7.90001 11.8 8.10001 11.8 8.40001C11.8 9.20001 12.9 9.60001 13.5 9.10001Z" fill="#5D76F8"/>
<path d="M17.6001 9.29993H29.1001C29.6001 9.29993 30.1001 8.89993 30.1001 8.29993C30.1001 7.79993 29.7001 7.29993 29.1001 7.29993H17.6001C17.1001 7.29993 16.6001 7.69993 16.6001 8.29993C16.7001 8.89993 17.1001 9.29993 17.6001 9.29993Z" fill="#5D76F8"/>
<path d="M11.5 13.4H19.2C19.7 13.4 20.2 13 20.2 12.4C20.2 11.9 19.8 11.4 19.2 11.4H11.5C11 11.4 10.5 11.8 10.5 12.4C10.5 13 10.9 13.4 11.5 13.4Z" fill="#5D76F8"/>
<path d="M21.8999 15.2999C21.3999 15.2999 20.8999 15.6999 20.8999 16.2999C20.8999 16.8999 21.2999 17.2999 21.8999 17.2999H25.6999C26.1999 17.2999 26.6999 16.8999 26.6999 16.2999C26.6999 15.6999 26.2999 15.2999 25.6999 15.2999H21.8999Z" fill="#5D76F8"/>
<path d="M7.3001 13.2C8.2001 12.3 6.8001 10.9 5.9001 11.8C5.7001 12 5.6001 12.2 5.6001 12.5C5.7001 13.3 6.7001 13.8 7.3001 13.2Z" fill="#5D76F8"/>
<path d="M16.4001 15.6C16.2001 15.8 16.1001 16 16.1001 16.3C16.1001 17.2 17.2001 17.6 17.8001 17C18.0001 16.8 18.1001 16.6 18.1001 16.3C18.1001 15.4 17.0001 15 16.4001 15.6Z" fill="#5D76F8"/>
<path d="M14.3 48.8H31C31.5 48.8 32 48.4 32 47.8C32 47.3 31.6 46.8 31 46.8H15.2V42.6C15.2 42.2 15 41.9 14.6 41.7C14.3 41.5 13.9 41.6 13.6 41.8L0.4 52.6C0.1 52.7 0 53 0 53.3C0 53.6 0.1 53.9 0.4 54.1L13.7 64.8C14 65 14.4 65.1 14.7 64.9C15 64.7 15.3 64.4 15.3 64V59.8H31C31.5 59.8 32 59.4 32 58.8C32 58.3 31.6 57.8 31 57.8H14.3C13.8 57.8 13.3 58.2 13.3 58.8V62L2.5 53.3L13.3 44.6V47.8C13.3 48.3 13.7 48.8 14.3 48.8Z" fill="#5D76F8"/>
<path d="M50.5 56.9C50.3 57.1 50.2 57.3 50.2 57.6C50.2 57.9 50.3 58.1 50.5 58.3C50.7 58.5 50.9 58.6 51.2 58.6C51.5 58.6 51.7 58.5 51.9 58.3C52.1 58.1 52.2 57.9 52.2 57.6C52.2 57.3 52.1 57.1 51.9 56.9C51.5 56.6 50.9 56.6 50.5 56.9Z" fill="#5D76F8"/>
<path d="M46.4001 56.7H34.8C34.3 56.7 33.8 57.1 33.8 57.7C33.8 58.2 34.2 58.7 34.8 58.7H46.3C46.8 58.7 47.3 58.3 47.3 57.7C47.3 57.1 46.9001 56.7 46.4001 56.7Z" fill="#5D76F8"/>
<path d="M52.5 52.6H44.8C44.3 52.6 43.8 53 43.8 53.6C43.8 54.1 44.2 54.6 44.8 54.6H52.5C53 54.6 53.5 54.2 53.5 53.6C53.5 53 53.1 52.6 52.5 52.6Z" fill="#5D76F8"/>
<path d="M38.3 48.7C37.8 48.7 37.3 49.1 37.3 49.7C37.3 50.2 37.7 50.7 38.3 50.7H42.1C42.6 50.7 43.1 50.3 43.1 49.7C43.1 49.2 42.7 48.7 42.1 48.7H38.3Z" fill="#5D76F8"/>
<path d="M56.6999 52.8C56.4999 53 56.3999 53.2 56.3999 53.5C56.3999 53.8 56.4999 54 56.6999 54.2C56.8999 54.4 57.0999 54.5 57.3999 54.5C57.6999 54.5 57.8999 54.4 58.0999 54.2C58.2999 54 58.3999 53.8 58.3999 53.5C58.3999 53.2 58.2999 53 58.0999 52.8C57.6999 52.5 56.9999 52.5 56.6999 52.8Z" fill="#5D76F8"/>
<path d="M47.5999 50.4C47.7999 50.2 47.8999 50 47.8999 49.7C47.8999 49.4 47.7999 49.2 47.5999 49C47.2999 48.6 46.5999 48.6 46.1999 49C45.9999 49.2 45.8999 49.4 45.8999 49.7C45.8999 50 45.9999 50.2 46.1999 50.4C46.3999 50.6 46.5999 50.7 46.8999 50.7C47.1999 50.7 47.3999 50.6 47.5999 50.4Z" fill="#5D76F8"/>
</svg>
