<svg width="64" height="60" viewBox="0 0 64 60" fill="none" xmlns="http://www.w3.org/2000/svg">
<path d="M25.7 8.69995C11.5 8.69995 0 20.1999 0 34.2999C0 48.5 11.5 60 25.7 60C39.9 60 51.4 48.5 51.4 34.2999C51.3 20.1999 39.8 8.69995 25.7 8.69995ZM45.2 21H35.5C34.4 16.8 32.7 13.4 30.7 11.2C36.7 12.5 41.8 16.1 45.2 21ZM2 35.2999H14.2C14.3 39 14.7 42.5 15.3 45.5999H4.9C3.2 42.5999 2.2 39.0999 2 35.2999ZM26.7 21V10.8C29.3 11.6 31.8 15.2 33.4 21H26.7ZM33.9 23C34.6 26 35 29.5 35.1 33.2999H26.7V23H33.9ZM24.7 10.9V21H18C19.5 15.3 22.1 11.6 24.7 10.9ZM24.7 23V33.2999H16.3C16.4 29.5 16.8 26 17.5 23H24.7ZM14.2 33.2999H2C2.2 29.5999 3.2 26.1 4.9 23H15.4C14.7 26.1 14.3 29.5999 14.2 33.2999ZM16.3 35.2999H24.7V45.5999H17.5C16.7 42.6999 16.3 39.1999 16.3 35.2999ZM24.7 47.7V57.9C22.1 57.1 19.6 53.5 18 47.7H24.7ZM26.7 57.7999V47.7H33.4C31.8 53.4 29.2 57.0999 26.7 57.7999ZM26.7 45.7V35.2999H35.1C35 39.0999 34.6 42.5999 33.9 45.5999H26.7V45.7ZM37.1 35.2999H49.3C49.1 39 48.1 42.5 46.4 45.5999H36C36.6 42.5 37 39.0999 37.1 35.2999ZM37.1 33.2999C37 29.5999 36.6 26.1 36 23H46.5C48.2 26.1 49.2 29.5999 49.4 33.2999H37.1ZM20.6 11.2C18.6 13.3 17 16.7 15.8 21H6.1C9.5 16.1 14.6 12.5 20.6 11.2ZM6.1 47.7H15.8C16.9 51.9 18.6 55.2999 20.6 57.5C14.6 56.0999 9.5 52.6 6.1 47.7ZM30.7 57.5C32.7 55.2999 34.3 51.9 35.5 47.7H45.2C41.8 52.6 36.7 56.0999 30.7 57.5Z" fill="#5D76F8"/>
<path d="M63.7 34C63.3 33.6 62.7001 33.6 62.3 34L59.9001 36.4C61.7001 5.89997 26 -11.2 3.40005 8.29997C3.00005 8.69997 2.90005 9.29997 3.30005 9.69997C3.70005 10.1 4.30005 10.1 4.70005 9.79997C26.2001 -8.60003 60.1001 7.89997 57.9001 36.9L55 34C54.6 33.6 54 33.6 53.6 34C53.2 34.4 53.2 35 53.6 35.4L57.9001 39.8C58.1001 40 58.3 40.1 58.6 40.1C58.9 40.1 59.1 40 59.3 39.8L63.7 35.5C64.1 35 64.1 34.4 63.7 34Z" fill="#5D76F8"/>
</svg>
