<svg width="57" height="67" viewBox="0 0 57 67" fill="none" xmlns="http://www.w3.org/2000/svg">
<path d="M22.4999 56.8C22.1999 55.1 23.6999 55.4 19.1999 45.8C18.2999 43.8 18.7999 42.6 18.6999 35.9C18.6999 32 15.4999 28.9 11.6999 28.9H11.4999C10.8999 28.9 10.4999 29.3 10.4999 29.9V40C10.4999 40.4 10.1999 40.8 9.6999 40.8C9.1999 40.8 8.8999 40.5 8.8999 40V22.6C8.8999 18.8 5.7999 15.6 1.8999 15.6C1.2999 15.6 0.899902 16 0.899902 16.6V41.3C0.899902 43 1.4999 44.7 2.4999 46L8.9999 54.5V56.8H7.2999C6.6999 56.8 6.2999 57.2 6.2999 57.8V65.5C6.2999 66.1 6.6999 66.5 7.2999 66.5H24.2999C24.8999 66.5 25.2999 66.1 25.2999 65.5V57.8C25.1999 56.3 23.1999 56.9 22.4999 56.8ZM4.0999 44.8C3.2999 43.8 2.8999 42.6 2.8999 41.3V17.6C5.0999 18 6.8999 20 6.8999 22.5V40C6.8999 41.5 8.0999 42.8 9.6999 42.8C11.2999 42.8 12.4999 41.6 12.4999 40V30.9C14.8999 31.3 16.6999 33.4 16.6999 35.9C16.8999 45 15.9999 43.7 18.1999 48.3C21.2999 54.8 20.2999 55.5 20.4999 56.7H10.8999V54.1C10.8999 53.6 10.8999 53.9 4.0999 44.8ZM23.1999 64.5H8.1999V58.8H23.1999V64.5Z" fill="#5D76F8"/>
<path d="M55.0998 15.5C51.0998 15.5 48.0998 18.7 48.0998 22.5V40C48.0998 40.4 47.7998 40.8 47.2998 40.8C46.8998 40.8 46.4998 40.5 46.4998 40V29.9C46.4998 29.3 46.0998 28.9 45.4998 28.9H45.2998C41.3998 28.9 38.2998 32.1 38.2998 35.9V43.4C38.2998 46.6 34.4998 50.2 34.4998 55.9V56.8H32.7998C32.1998 56.8 31.7998 57.2 31.7998 57.8V65.5C31.7998 66.1 32.1998 66.5 32.7998 66.5H49.7998C50.3998 66.5 50.7998 66.1 50.7998 65.5V57.8C50.7998 56.3 48.7998 56.9 48.0998 56.8V54.5L54.5998 46C55.5998 44.7 56.1998 43 56.1998 41.3V16.5C56.0998 16 55.6998 15.5 55.0998 15.5ZM48.7998 64.5H33.7998V58.8H48.7998V64.5ZM54.0998 41.3C54.0998 42.6 53.6998 43.8 52.8998 44.8C44.5998 56 46.0998 52.7 45.9998 56.8H36.3998V55.9C36.3998 50.6 40.1998 47.4 40.1998 43.4V35.9C40.1998 33.4 41.9998 31.3 44.3998 30.9V40C44.3998 41.5 45.5998 42.8 47.1998 42.8C48.6998 42.8 49.9998 41.6 49.9998 40V22.6C49.9998 20.1 51.7998 18.1 53.9998 17.7V41.3H54.0998Z" fill="#5D76F8"/>
<path d="M43.5999 15.6C43.5999 7.3 36.7999 0.5 28.4999 0.5C20.1999 0.5 13.3999 7.3 13.3999 15.6C13.3999 23.9 20.1999 30.7 28.4999 30.7C36.7999 30.7 43.5999 23.9 43.5999 15.6ZM28.4999 28.6C21.2999 28.6 15.3999 22.7 15.3999 15.5C15.3999 8.3 21.2999 2.5 28.4999 2.5C35.6999 2.5 41.5999 8.4 41.5999 15.6C41.5999 22.8 35.6999 28.6 28.4999 28.6Z" fill="#5D76F8"/>
<path d="M29.5 14.1L29.4 9.90005C30.5 10.1 31.6 10.5 32.6 11.2L34 9.20005C32.5 8.20005 31 7.60005 29.4 7.50005V6.30005H28V7.40005C25.3 7.50005 23.1 9.20005 23.1 11.9C23.1 14.8 25.1 15.7 28 16.4V20.7C26.7 20.5 25.4 19.8 24.1 18.8L22.5 20.7C24.1 22.1 25.9 22.9 28 23.1V24.7001H29.4V23.1C32.2 23 34.4 21.4 34.4 18.6C34.5 15.8 32.4 14.8 29.5 14.1ZM28 13.7C26.7 13.3 25.9 12.9 25.9 11.7C25.9 10.6 26.9 10 28 9.90005V13.7ZM29.4 20.8V16.8C30.7 17.2 31.7 17.6 31.7 18.9C31.8 20.1 30.6 20.7 29.4 20.8Z" fill="#5D76F8"/>
</svg>
