<svg width="187" height="59" viewBox="0 0 187 59" fill="none" xmlns="http://www.w3.org/2000/svg">
<path d="M10.7168 11.8992C9.96243 11.8992 9.42991 12.1211 9.11928 12.5648C8.80865 12.9864 8.65333 13.4523 8.65333 13.9627V15.5269H11.682C12.2145 15.5269 12.6583 15.7044 13.0133 16.0594C13.3683 16.3923 13.5458 16.8249 13.5458 17.3574C13.5458 17.89 13.3683 18.3337 13.0133 18.6887C12.6583 19.0215 12.2145 19.1879 11.682 19.1879H8.65333V30.9698C8.65333 31.5467 8.46473 32.0348 8.08754 32.4342C7.71034 32.8114 7.2333 33 6.65641 33C6.07952 33 5.60248 32.8114 5.22528 32.4342C4.84808 32.0348 4.65949 31.5467 4.65949 30.9698V19.1879H2.86226C2.32974 19.1879 1.88598 19.0215 1.53097 18.6887C1.17597 18.3337 0.998461 17.89 0.998461 17.3574C0.998461 16.8249 1.17597 16.3923 1.53097 16.0594C1.88598 15.7044 2.32974 15.5269 2.86226 15.5269H4.65949V13.9959C4.65949 12.3318 5.22528 10.9784 6.35687 9.93554C7.51065 8.8927 9.16366 8.37128 11.3159 8.37128C12.1369 8.37128 12.8469 8.53769 13.4459 8.87051C14.0672 9.20334 14.3778 9.71366 14.3778 10.4015C14.3778 10.934 14.2225 11.3667 13.9119 11.6995C13.6013 12.0323 13.2241 12.1987 12.7803 12.1987C12.6694 12.1987 12.5473 12.1876 12.4142 12.1654C12.3033 12.1432 12.1812 12.1211 12.0481 12.0989C11.5156 11.9657 11.0718 11.8992 10.7168 11.8992ZM15.0099 30.2376C14.8103 29.9713 14.7104 29.6385 14.7104 29.2391C14.7104 28.6622 14.9988 28.1741 15.5757 27.7747C15.8864 27.575 16.2081 27.4752 16.5409 27.4752C17.0069 27.4752 17.4506 27.686 17.8722 28.1075C18.5378 28.7954 19.2257 29.3057 19.9357 29.6385C20.6679 29.9713 21.5443 30.1377 22.565 30.1377C24.2956 30.0712 25.161 29.4166 25.161 28.1741C25.161 27.5306 24.8614 27.0425 24.2624 26.7097C23.6855 26.3769 22.7758 26.0441 21.5332 25.7112C20.2463 25.3562 19.1924 25.0012 18.3714 24.6462C17.5727 24.2912 16.8737 23.7587 16.2747 23.0487C15.6978 22.3165 15.4093 21.3402 15.4093 20.1198C15.4093 19.0548 15.7089 18.134 16.3079 17.3574C16.9292 16.5587 17.728 15.9485 18.7043 15.5269C19.7027 15.0832 20.7566 14.8613 21.866 14.8613C22.9976 14.8613 24.1292 15.0721 25.2608 15.4936C26.3924 15.9152 27.2799 16.5365 27.9234 17.3574C28.2118 17.7124 28.356 18.1118 28.356 18.5556C28.356 19.0659 28.1453 19.4875 27.7237 19.8203C27.4131 20.0644 27.058 20.1864 26.6587 20.1864C26.1705 20.1864 25.7711 20.0311 25.4605 19.7205C25.0611 19.2323 24.5397 18.844 23.8963 18.5556C23.275 18.2671 22.565 18.1229 21.7662 18.1229C20.0799 18.1229 19.2368 18.7331 19.2368 19.9534C19.2368 20.4416 19.3921 20.841 19.7027 21.1516C20.0133 21.44 20.4016 21.673 20.8676 21.8505C21.3557 22.0058 22.0325 22.2055 22.8978 22.4496C24.0959 22.7824 25.0944 23.1263 25.8932 23.4813C26.6919 23.8363 27.3687 24.3799 27.9234 25.1122C28.4781 25.8444 28.7554 26.8095 28.7554 28.0077C28.7554 29.0949 28.4337 30.049 27.7903 30.8699C27.1468 31.6687 26.3147 32.2789 25.2941 32.7005C24.2956 33.122 23.2639 33.3328 22.1989 33.3328C20.7345 33.3328 19.3699 33.0888 18.1052 32.6006C16.8405 32.1125 15.8087 31.3248 15.0099 30.2376ZM41.3501 14.8613C42.0157 14.8613 42.5704 15.0499 43.0142 15.4271C43.4801 15.8043 43.7131 16.248 43.7131 16.7584C43.7131 17.4462 43.5356 17.9676 43.1806 18.3226C42.8256 18.6554 42.404 18.8218 41.9159 18.8218C41.5831 18.8218 41.2059 18.7442 40.7843 18.5889C40.7177 18.5667 40.5624 18.5223 40.3183 18.4557C40.0965 18.3892 39.8524 18.3559 39.5861 18.3559C39.0092 18.3559 38.4545 18.5334 37.922 18.8884C37.3895 19.2434 36.9458 19.787 36.5908 20.5192C36.2579 21.2292 36.0915 22.0835 36.0915 23.0819V30.9698C36.0915 31.5467 35.9029 32.0348 35.5257 32.4342C35.1485 32.8114 34.6715 33 34.0946 33C33.5177 33 33.0407 32.8114 32.6635 32.4342C32.2863 32.0348 32.0977 31.5467 32.0977 30.9698V17.2243C32.0977 16.6474 32.2863 16.1704 32.6635 15.7932C33.0407 15.3938 33.5177 15.1941 34.0946 15.1941C34.6715 15.1941 35.1485 15.3938 35.5257 15.7932C35.9029 16.1704 36.0915 16.6474 36.0915 17.2243V17.657C36.6018 16.7473 37.3341 16.0594 38.2881 15.5935C39.2422 15.1054 40.2629 14.8613 41.3501 14.8613ZM54.7492 15.8597C56.7462 15.8597 58.2328 16.4921 59.209 17.7568C60.1853 18.9994 60.6734 20.608 60.6734 22.5827V32.0015C60.6734 32.29 60.5736 32.5341 60.3739 32.7337C60.1964 32.9112 59.9634 33 59.675 33C59.3865 33 59.1425 32.9112 58.9428 32.7337C58.7653 32.5341 58.6765 32.29 58.6765 32.0015V22.5827C58.6765 21.1405 58.3326 19.9756 57.6448 19.0881C56.9569 18.1784 55.8808 17.7235 54.4164 17.7235C53.4845 17.7235 52.597 17.9454 51.7538 18.3892C50.9329 18.8329 50.2672 19.432 49.7569 20.1864C49.2466 20.9186 48.9914 21.7174 48.9914 22.5827V32.0015C48.9914 32.29 48.8916 32.5341 48.6919 32.7337C48.5144 32.9112 48.2814 33 47.993 33C47.7045 33 47.4605 32.9112 47.2608 32.7337C47.0833 32.5341 46.9945 32.29 46.9945 32.0015V9.36975C46.9945 9.0813 47.0833 8.84833 47.2608 8.67082C47.4605 8.47113 47.7045 8.37128 47.993 8.37128C48.2814 8.37128 48.5144 8.47113 48.6919 8.67082C48.8916 8.84833 48.9914 9.0813 48.9914 9.36975V19.1214C49.5905 18.1673 50.4226 17.3907 51.4876 16.7916C52.5526 16.1704 53.6398 15.8597 54.7492 15.8597ZM81.6198 24.4798C81.6198 26.1439 81.2537 27.6527 80.5215 29.0062C79.7893 30.3596 78.7797 31.4246 77.4928 32.2012C76.2059 32.9556 74.7748 33.3328 73.1994 33.3328C71.6241 33.3328 70.193 32.9556 68.9061 32.2012C67.6192 31.4246 66.6096 30.3596 65.8774 29.0062C65.1452 27.6527 64.7791 26.1439 64.7791 24.4798C64.7791 22.8157 65.1452 21.3069 65.8774 19.9534C66.6096 18.6 67.6192 17.5349 68.9061 16.7584C70.193 15.9818 71.6241 15.5935 73.1994 15.5935C74.7748 15.5935 76.2059 15.9818 77.4928 16.7584C78.7797 17.5349 79.7893 18.6 80.5215 19.9534C81.2537 21.3069 81.6198 22.8157 81.6198 24.4798ZM79.6229 24.4798C79.6229 23.1485 79.3455 21.9504 78.7908 20.8853C78.2361 19.8203 77.4595 18.9883 76.4611 18.3892C75.4848 17.7679 74.3976 17.4573 73.1994 17.4573C72.0013 17.4573 70.9141 17.7679 69.9378 18.3892C68.9615 18.9883 68.185 19.8203 67.6081 20.8853C67.0534 21.9504 66.776 23.1485 66.776 24.4798C66.776 25.7889 67.0534 26.9759 67.6081 28.041C68.185 29.106 68.9615 29.9491 69.9378 30.5704C70.9141 31.1695 72.0013 31.469 73.1994 31.469C74.3976 31.469 75.4848 31.1695 76.4611 30.5704C77.4595 29.9713 78.2361 29.1393 78.7908 28.0743C79.3455 27.0092 79.6229 25.8111 79.6229 24.4798ZM87.901 32.0015C87.901 32.29 87.8012 32.5341 87.6015 32.7337C87.424 32.9112 87.191 33 86.9025 33C86.6141 33 86.37 32.9112 86.1703 32.7337C85.9928 32.5341 85.9041 32.29 85.9041 32.0015V9.36975C85.9041 9.0813 85.9928 8.84833 86.1703 8.67082C86.37 8.47113 86.6141 8.37128 86.9025 8.37128C87.191 8.37128 87.424 8.47113 87.6015 8.67082C87.8012 8.84833 87.901 9.0813 87.901 9.36975V32.0015ZM106.862 8.37128C107.15 8.37128 107.383 8.47113 107.561 8.67082C107.761 8.84833 107.86 9.0813 107.86 9.36975V32.0015C107.86 32.29 107.761 32.5341 107.561 32.7337C107.383 32.9112 107.15 33 106.862 33C106.573 33 106.329 32.9112 106.13 32.7337C105.952 32.5341 105.863 32.29 105.863 32.0015V29.6718C105.309 30.6924 104.477 31.5578 103.367 32.2678C102.28 32.9778 101.071 33.3328 99.7395 33.3328C98.2751 33.3328 96.9438 32.9556 95.7457 32.2012C94.5697 31.4246 93.6378 30.3596 92.95 29.0062C92.2622 27.6527 91.9183 26.1328 91.9183 24.4465C91.9183 22.7824 92.2622 21.2736 92.95 19.9202C93.6378 18.5667 94.5697 17.5128 95.7457 16.7584C96.9438 15.9818 98.264 15.5935 99.7063 15.5935C101.015 15.5935 102.225 15.9263 103.334 16.5919C104.443 17.2354 105.287 18.0785 105.863 19.1214V9.36975C105.863 9.0813 105.952 8.84833 106.13 8.67082C106.329 8.47113 106.573 8.37128 106.862 8.37128ZM99.9392 31.469C101.093 31.469 102.125 31.1695 103.034 30.5704C103.966 29.9713 104.687 29.1393 105.198 28.0743C105.73 26.987 105.997 25.7778 105.997 24.4465C105.997 23.1374 105.73 21.9504 105.198 20.8853C104.687 19.8203 103.966 18.9883 103.034 18.3892C102.125 17.7679 101.093 17.4573 99.9392 17.4573C98.7855 17.4573 97.7426 17.7679 96.8107 18.3892C95.901 18.9883 95.1799 19.8203 94.6474 20.8853C94.1371 21.9504 93.8819 23.1374 93.8819 24.4465C93.8819 25.7778 94.1371 26.9759 94.6474 28.041C95.1799 29.106 95.901 29.9491 96.8107 30.5704C97.7426 31.1695 98.7855 31.469 99.9392 31.469ZM115.001 32.0015C115.001 32.29 114.902 32.5341 114.702 32.7337C114.524 32.9112 114.291 33 114.003 33C113.715 33 113.47 32.9112 113.271 32.7337C113.093 32.5341 113.005 32.29 113.005 32.0015V16.6918C113.005 16.4034 113.093 16.1704 113.271 15.9929C113.47 15.7932 113.715 15.6933 114.003 15.6933C114.291 15.6933 114.524 15.7932 114.702 15.9929C114.902 16.1704 115.001 16.4034 115.001 16.6918V32.0015ZM114.003 13.4634C113.559 13.4634 113.215 13.3636 112.971 13.1639C112.727 12.942 112.605 12.6314 112.605 12.232V11.8992C112.605 11.4998 112.727 11.2003 112.971 11.0006C113.237 10.7787 113.592 10.6677 114.036 10.6677C114.924 10.6677 115.368 11.0782 115.368 11.8992V12.232C115.368 12.6314 115.246 12.942 115.001 13.1639C114.78 13.3636 114.447 13.4634 114.003 13.4634ZM128.21 15.5935C130.273 15.5935 131.782 16.2037 132.736 17.424C133.713 18.6222 134.201 20.2197 134.201 22.2166V32.0015C134.201 32.29 134.101 32.5341 133.901 32.7337C133.702 32.9112 133.469 33 133.202 33C132.914 33 132.67 32.9112 132.47 32.7337C132.293 32.5341 132.204 32.29 132.204 32.0015V22.3165C132.204 20.8742 131.838 19.7094 131.106 18.8218C130.396 17.9121 129.286 17.4573 127.777 17.4573C126.823 17.4573 125.914 17.6792 125.048 18.1229C124.205 18.5667 123.517 19.1658 122.985 19.9202C122.452 20.6524 122.186 21.4511 122.186 22.3165V32.0015C122.186 32.29 122.086 32.5341 121.886 32.7337C121.709 32.9112 121.476 33 121.187 33C120.899 33 120.655 32.9112 120.455 32.7337C120.278 32.5341 120.189 32.29 120.189 32.0015V17.0912C120.189 16.8027 120.278 16.5698 120.455 16.3923C120.655 16.1926 120.899 16.0927 121.187 16.0927C121.476 16.0927 121.709 16.1926 121.886 16.3923C122.086 16.5698 122.186 16.8027 122.186 17.0912V18.9217C122.785 17.9676 123.639 17.1799 124.749 16.5587C125.88 15.9152 127.034 15.5935 128.21 15.5935ZM153.808 15.9929C154.096 15.9929 154.329 16.0927 154.507 16.2924C154.707 16.4699 154.807 16.714 154.807 17.0246V31.4357C154.807 33.1664 154.44 34.6419 153.708 35.8623C152.998 37.1048 152.011 38.0478 150.746 38.6912C149.504 39.3347 148.072 39.6564 146.453 39.6564C145.676 39.6564 144.855 39.5566 143.99 39.3569C143.147 39.1572 142.414 38.902 141.793 38.5914C141.194 38.2808 140.85 37.959 140.761 37.6262C140.606 37.4709 140.529 37.2934 140.529 37.0937C140.529 36.8718 140.628 36.6943 140.828 36.5612C140.917 36.4946 141.028 36.4613 141.161 36.4613C141.294 36.4613 141.549 36.539 141.926 36.6943L142.625 36.9938C144.001 37.5264 145.288 37.7926 146.486 37.7926C148.461 37.7926 150.003 37.2268 151.112 36.0952C152.244 34.9858 152.81 33.477 152.81 31.5689V29.5054C152.255 30.7035 151.378 31.6465 150.18 32.3344C148.982 33 147.729 33.3328 146.419 33.3328C144.888 33.3328 143.502 32.9556 142.259 32.2012C141.039 31.4246 140.074 30.3596 139.364 29.0062C138.654 27.6527 138.299 26.1328 138.299 24.4465C138.299 22.7824 138.654 21.2736 139.364 19.9202C140.074 18.5667 141.039 17.5128 142.259 16.7584C143.502 15.9818 144.877 15.5935 146.386 15.5935C147.784 15.5935 149.06 15.9485 150.214 16.6585C151.39 17.3463 152.255 18.1784 152.81 19.1547V17.0246C152.81 16.7362 152.898 16.4921 153.076 16.2924C153.276 16.0927 153.52 15.9929 153.808 15.9929ZM146.586 31.469C147.806 31.469 148.893 31.1806 149.847 30.6037C150.824 30.0046 151.578 29.1726 152.111 28.1075C152.665 27.0203 152.943 25.8 152.943 24.4465C152.943 23.093 152.665 21.8838 152.111 20.8188C151.578 19.7537 150.824 18.9328 149.847 18.3559C148.893 17.7568 147.806 17.4573 146.586 17.4573C145.388 17.4573 144.3 17.7679 143.324 18.3892C142.37 18.9883 141.616 19.8203 141.061 20.8853C140.529 21.9504 140.262 23.1374 140.262 24.4465C140.262 25.7778 140.529 26.9759 141.061 28.041C141.616 29.106 142.37 29.9491 143.324 30.5704C144.3 31.1695 145.388 31.469 146.586 31.469ZM158.779 30.3042C158.601 30.0157 158.513 29.7716 158.513 29.5719C158.513 29.2835 158.657 29.0616 158.945 28.9063C159.078 28.7732 159.256 28.7066 159.478 28.7066C159.744 28.7066 159.988 28.8176 160.21 29.0394C161.519 30.7701 163.261 31.6354 165.435 31.6354C166.5 31.6354 167.421 31.3914 168.198 30.9032C168.996 30.3929 169.396 29.6607 169.396 28.7066C169.396 27.7747 169.03 27.0758 168.297 26.6098C167.565 26.1439 166.545 25.7445 165.235 25.4117C163.394 24.9457 161.952 24.3467 160.909 23.6145C159.866 22.8601 159.345 21.7618 159.345 20.3195C159.345 19.4098 159.6 18.6 160.11 17.8899C160.62 17.1577 161.308 16.592 162.174 16.1926C163.061 15.7932 164.06 15.5935 165.169 15.5935C166.123 15.5935 167.077 15.7821 168.031 16.1593C169.007 16.5143 169.84 17.0912 170.527 17.8899C170.727 18.0453 170.827 18.2671 170.827 18.5556C170.827 18.8218 170.716 19.0548 170.494 19.2545C170.339 19.3876 170.139 19.4542 169.895 19.4542C169.673 19.4542 169.473 19.3655 169.296 19.1879C168.763 18.5889 168.131 18.134 167.399 17.8234C166.667 17.5128 165.879 17.3574 165.036 17.3574C163.993 17.3574 163.094 17.6015 162.34 18.0896C161.608 18.5778 161.242 19.31 161.242 20.2863C161.286 21.1738 161.685 21.8505 162.44 22.3165C163.216 22.7824 164.348 23.204 165.835 23.5812C166.988 23.8696 167.942 24.1914 168.697 24.5464C169.451 24.9014 170.061 25.4006 170.527 26.0441C171.015 26.6875 171.26 27.5417 171.26 28.6068C171.26 30.049 170.683 31.2028 169.529 32.0681C168.375 32.9112 166.944 33.3328 165.235 33.3328C162.529 33.3328 160.376 32.3233 158.779 30.3042Z" fill="#09204C"/>
<path d="M177.318 8.69742C177.481 8.69742 177.614 8.74583 177.717 8.84265C177.82 8.93947 177.871 9.06655 177.871 9.22389C177.871 9.38122 177.82 9.5083 177.717 9.60512C177.614 9.69589 177.481 9.74127 177.318 9.74127H175.893V14.4976C175.893 14.6549 175.835 14.788 175.72 14.897C175.605 14.9998 175.463 15.0513 175.294 15.0513C175.124 15.0513 174.985 14.9998 174.876 14.897C174.767 14.788 174.713 14.6549 174.713 14.4976V9.74127H173.288C173.124 9.74127 172.991 9.69286 172.888 9.59604C172.785 9.49922 172.734 9.37214 172.734 9.21481C172.734 9.06353 172.785 8.93947 172.888 8.84265C172.997 8.74583 173.13 8.69742 173.288 8.69742H177.318ZM184.334 8.68835C184.485 8.68835 184.615 8.74281 184.724 8.85173C184.839 8.9546 184.897 9.08471 184.897 9.24204V14.4976C184.897 14.6549 184.845 14.788 184.742 14.897C184.64 14.9998 184.503 15.0513 184.334 15.0513C184.164 15.0513 184.025 14.9998 183.916 14.897C183.814 14.7941 183.762 14.661 183.762 14.4976V10.8396L182.264 13.127C182.204 13.1996 182.134 13.2601 182.056 13.3085C181.977 13.3509 181.895 13.369 181.811 13.363C181.732 13.369 181.653 13.3509 181.575 13.3085C181.496 13.2601 181.426 13.1996 181.366 13.127L179.868 10.7579V14.4976C179.868 14.661 179.82 14.7941 179.723 14.897C179.626 14.9998 179.499 15.0513 179.342 15.0513C179.19 15.0513 179.066 14.9998 178.969 14.897C178.873 14.788 178.824 14.6549 178.824 14.4976V9.24204C178.824 9.09076 178.879 8.96065 178.988 8.85173C179.103 8.74281 179.239 8.68835 179.396 8.68835C179.487 8.68835 179.578 8.71255 179.668 8.76096C179.759 8.80332 179.829 8.86081 179.877 8.93342L181.856 11.9742L183.889 8.93342C183.938 8.86081 184.001 8.80332 184.08 8.76096C184.164 8.71255 184.249 8.68835 184.334 8.68835Z" fill="#09204C"/>
</svg>
