<?xml version="1.0" standalone="no"?>
<svg version="1.0" xmlns="http://www.w3.org/2000/svg" width="28" height="64" viewBox="0 0 600.000000 1370.000000"
 preserveAspectRatio="xMidYMid meet">
<g transform="translate(0.000000,1370.000000) scale(0.100000,-0.100000)"
fill="#5D76F8" stroke="none">
<path d="M2895 13685 c-46 -16 -74 -45 -231 -240 -62 -77 -143 -178 -181 -225
-38 -47 -118 -146 -179 -221 -60 -74 -147 -182 -194 -240 -46 -57 -138 -171
-205 -253 -66 -82 -150 -186 -186 -230 -89 -110 -263 -326 -384 -477 -55 -68
-102 -126 -105 -129 -3 -3 -50 -61 -105 -129 -149 -185 -231 -286 -381 -471
-42 -52 -120 -149 -173 -215 -53 -66 -98 -122 -101 -125 -5 -5 -97 -118 -295
-365 -170 -211 -170 -212 -170 -316 0 -78 3 -90 30 -135 20 -31 47 -58 75 -74
l45 -25 798 -3 797 -3 0 -4368 c0 -4674 -2 -4420 44 -4581 123 -422 478 -746
923 -844 97 -22 461 -22 561 -1 398 83 739 363 884 725 38 94 63 185 77 277 8
51 11 1332 11 4432 l0 4360 788 3 c879 3 812 -2 887 75 51 52 75 110 75 178 0
85 10 70 -345 511 -44 54 -82 101 -85 104 -3 3 -60 72 -125 154 -147 183 -221
275 -243 301 -9 11 -62 77 -117 145 -55 69 -102 127 -105 130 -3 3 -42 50 -85
105 -44 55 -82 102 -85 105 -3 3 -50 61 -105 130 -55 69 -102 127 -105 130 -3
3 -51 61 -105 130 -54 69 -132 166 -173 215 -106 129 -125 152 -267 330 -70
88 -140 174 -154 191 -34 40 -73 88 -226 279 -147 183 -208 258 -215 265 -3 3
-58 70 -122 151 -142 178 -164 200 -230 233 -60 30 -146 34 -213 11z"/>
</g>
</svg>
