<svg width="28" height="64" viewBox="0 0 28 64" fill="none" xmlns="http://www.w3.org/2000/svg">
<path d="M13.0674 63.5467C13.3005 63.7733 13.6503 64 14 64C14.3497 64 14.6995 63.8867 14.9326 63.5467L27.7563 47.68C27.9895 47.34 28.1061 46.8867 27.8729 46.4333C27.6398 45.98 27.29 45.8667 26.8237 45.8667H19.829V5.66667C19.829 2.49333 17.2642 0 14 0C10.7358 0 8.17105 2.49333 8.17105 5.66667V45.8667H1.1763C0.709987 45.8667 0.360249 46.0933 0.127091 46.5467C-0.106067 47 0.0105118 47.34 0.24367 47.68L13.0674 63.5467Z" fill="#5D76F8"/>
</svg>
